<svg width="32.000000" height="32.000000" viewBox="0 0 32 32" fill="none" xmlns="http://www.w3.org/2000/svg" xmlns:xlink="http://www.w3.org/1999/xlink">
	<desc>
			Created with Pixso.
	</desc>
	<defs>
		<linearGradient x1="11.000000" y1="9.000001" x2="23.000000" y2="22.999996" id="paint_linear_597_260_0" gradientUnits="userSpaceOnUse">
			<stop stop-color="#FFFFFF" stop-opacity="0.701961"/>
			<stop offset="1.000000" stop-color="#FFFFFF"/>
		</linearGradient>
	</defs>
	<path id="Ellipse" d="M0 16C0 7.16 7.16 0 16 0C24.83 0 32 7.16 32 16C32 24.83 24.83 32 16 32C7.16 32 0 24.83 0 16Z" fill="#3751FF" fill-opacity="1.000000" fill-rule="evenodd"/>
	<path id="D" d="M12 9L15.99 9C18.21 9 19.93 9.6 21.15 10.82C22.38 12.04 23 13.76 23 15.98C23 18.2 22.38 19.93 21.15 21.17C19.93 22.39 18.21 23 15.99 23L12 23C11.44 23 11 22.55 11 22L11 10C11 9.44 11.44 9 12 9Z" fill="url(#paint_linear_597_260_0)" fill-opacity="1.000000" fill-rule="nonzero"/>
</svg>
